<svg width="53" height="52" viewBox="0 0 53 52" fill="none" xmlns="http://www.w3.org/2000/svg">
<circle cx="26.666" cy="26" r="26" fill="#F4F4F4"/>
<path d="M18.827 26.8407L20.8625 30.3129C21.0071 30.5596 21.3287 30.635 21.5678 30.4783L22.6034 29.8M18.827 26.8407L21.4823 25.7536M18.827 26.8407L13.5202 29.0337C12.398 29.4975 11.666 30.592 11.666 31.8063V41.9997C11.666 42.552 12.1137 42.9997 12.666 42.9997H16.2013M24.0785 28.8337L21.4823 25.7536M24.0785 28.8337L22.6034 29.8M24.0785 28.8337L26.9429 25.7536M24.0785 28.8337L25.6599 29.8M21.4823 25.7536V23.7246M22.6034 29.8L23.064 31.363M23.064 31.363L21.4528 40.195L24.1978 42.9997L26.9429 40.195L25.3913 31.363M23.064 31.363H25.3913M25.3913 31.363L25.6599 29.8M29.2702 26.8407L33.0298 28.3203L34.888 29.0517C36.0351 29.5032 36.7893 30.6105 36.7893 31.8433V41.9997C36.7893 42.552 36.3416 42.9997 35.7893 42.9997H32.1943M29.2702 26.8407L26.9429 25.7536M29.2702 26.8407L27.4879 30.2892C27.3546 30.547 27.0306 30.6376 26.783 30.4863L25.6599 29.8M16.2013 32.0195V42.9997M16.2013 42.9997H32.1943M32.1943 32.0195V42.9997M26.9429 23.7246V25.7536" stroke="#222222"/>
<path d="M19.1855 16.8033V16.8033C19.1855 16.5929 19.3858 16.4359 19.5943 16.4634C20.8949 16.6346 23.5602 16.4408 25.4925 15.6416C26.3633 15.2814 27.4304 15.2287 28.1508 15.8363C28.6801 16.2827 28.9723 16.6066 28.9723 16.8629" stroke="#222222"/>
<path d="M17.8711 17.6384V16.2659C17.8711 12.8053 20.6764 10 24.137 10V10V10C27.5976 10 30.4029 12.8053 30.4029 16.2659V17.6384" stroke="#222222"/>
<path d="M19.1855 16.5641L19.2328 19.7274C19.2728 22.4083 21.4574 24.5605 24.1386 24.5605V24.5605V24.5605C26.8082 24.5605 28.9723 22.3964 28.9723 19.7269V16.7431" stroke="#222222"/>
<path d="M29.0549 17.4219H29.5097C30.2552 17.4219 30.8596 18.0263 30.8596 18.7718C30.8596 19.5174 30.2552 20.1217 29.5097 20.1217H29.0549V17.4219ZM19.1036 20.1217H18.6488C17.9032 20.1217 17.2988 19.5174 17.2988 18.7718C17.2988 18.0263 17.9032 17.4219 18.6488 17.4219H19.1036V18.8315V20.1217Z" stroke="#222222"/>
<path d="M44.8333 28.2505C44.6601 26.9307 44.0818 25.7078 43.1876 24.7701C42.2934 23.8325 41.1328 23.2322 39.8847 23.0617C38.6365 22.8912 37.3701 23.1599 36.2804 23.8264C35.1906 24.493 34.3381 25.5205 33.8542 26.7505M33.5 23.7505V26.7505H36.3333M33.5 29.7505C33.6732 31.0703 34.2515 32.2933 35.1457 33.2309C36.0399 34.1685 37.2005 34.7688 38.4487 34.9393C39.6968 35.1099 40.9633 34.8412 42.053 34.1746C43.1427 33.508 43.9952 32.4806 44.4792 31.2505M44.8333 34.2505V31.2505H42M38.4583 29.0005C38.4583 29.1994 38.533 29.3902 38.6658 29.5308C38.7986 29.6715 38.9788 29.7505 39.1667 29.7505C39.3545 29.7505 39.5347 29.6715 39.6675 29.5308C39.8004 29.3902 39.875 29.1994 39.875 29.0005C39.875 28.8016 39.8004 28.6108 39.6675 28.4702C39.5347 28.3295 39.3545 28.2505 39.1667 28.2505C38.9788 28.2505 38.7986 28.3295 38.6658 28.4702C38.533 28.6108 38.4583 28.8016 38.4583 29.0005Z" stroke="black" stroke-linecap="round" stroke-linejoin="round"/>
</svg>
