<svg width="53" height="52" viewBox="0 0 53 52" fill="none" xmlns="http://www.w3.org/2000/svg">
<circle cx="26.334" cy="26" r="26" fill="#F4F4F4"/>
<path d="M15.8633 34.5195V40.6689" stroke="black" stroke-linecap="round"/>
<path d="M13.2656 35.248V40.9346" stroke="black" stroke-linecap="round"/>
<path d="M9.33398 41H34.5021" stroke="black" stroke-linecap="round"/>
<path d="M30.4453 35.1816V40.9343" stroke="black" stroke-linecap="round"/>
<path d="M27.9727 34.5195V40.9334" stroke="black" stroke-linecap="round"/>
<path d="M13.2656 38.5547H30.4459" stroke="black" stroke-linecap="round"/>
<path d="M19.2871 33.9902C19.435 34.8939 20.1747 36.6616 21.9497 36.5029C23.7248 36.3442 24.3376 34.7617 24.4222 33.9902" stroke="black" stroke-linecap="round"/>
<path d="M19.6679 30.752C19.9426 31.7658 20.099 33.8333 18.5268 33.992C16.3713 34.5871 9.27101 35.1822 9.33441 38.7528" stroke="black" stroke-linecap="round"/>
<path d="M24.2188 30.752C23.9441 31.7658 23.7877 33.8333 25.3599 33.992C27.5154 34.5871 34.6157 35.1822 34.5523 38.7528" stroke="black" stroke-linecap="round"/>
<path d="M9.33398 38.752V41.0001" stroke="black" stroke-linecap="round"/>
<path d="M34.5527 38.752V41.0001" stroke="black" stroke-linecap="round"/>
<path d="M15.4199 19.6426V24.8663C16.1807 26.894 19.2871 32.0075 22.1399 31.3463" stroke="black" stroke-linecap="round"/>
<path d="M28.3535 19.6426V24.8663C27.5928 26.894 24.4864 32.0075 21.6336 31.3463" stroke="black" stroke-linecap="round"/>
<path d="M13.7019 19.6426C13.5328 20.4801 13.6385 22.2478 15.4135 22.6181" stroke="black" stroke-linecap="round"/>
<path d="M30.0657 19.9062C30.2348 20.7438 30.1291 22.5115 28.354 22.8818" stroke="black" stroke-linecap="round"/>
<path d="M26.4512 14.4844H28.987" stroke="black" stroke-linecap="round"/>
<path d="M14.5332 14.4844H17.069" stroke="black" stroke-linecap="round"/>
<path d="M20.9359 8.005C18.5691 7.89479 13.975 9.56549 14.5329 17.1299" stroke="black"/>
<path d="M22.7751 8.00891C25.1419 7.8987 29.7359 9.5694 29.1781 17.1338" stroke="black"/>
<path d="M15.2839 19.5399C13.9164 19.5399 12.802 18.4567 12.7518 17.1016H30.8938C30.8436 18.4567 29.7291 19.5399 28.3617 19.5399H15.2839Z" stroke="black"/>
<path d="M34.9282 28.0893H44.4944M35.9352 22.8379L43.9909 33.3406M30.9004 22.8379H40.7399L49.0257 33.3406H38.6686L30.9004 22.8379Z" stroke="black" stroke-width="0.666667" stroke-linecap="round" stroke-linejoin="round"/>
<path d="M42.9838 38.5924C42.9838 39.0274 42.3075 39.3801 41.4733 39.3801C40.6391 39.3801 39.9629 39.0274 39.9629 38.5924C39.9629 38.1574 40.6391 37.8047 41.4733 37.8047C42.3075 37.8047 42.9838 38.1574 42.9838 38.5924Z" fill="black"/>
<path d="M40.7188 33.8333C40.7188 33.4162 41.0569 33.0781 41.474 33.0781C41.8911 33.0781 42.2292 33.4162 42.2292 33.8333V38.6246C42.2292 39.0417 41.8911 39.3798 41.474 39.3798C41.0569 39.3798 40.7188 39.0417 40.7188 38.6246V33.8333Z" fill="black"/>
<path d="M23.334 9C23.334 10.2145 22.5641 11 21.834 11C21.1039 11 20.334 10.2145 20.334 9C20.334 7.78555 21.1039 7 21.834 7C22.5641 7 23.334 7.78555 23.334 9Z" stroke="black"/>
</svg>
