<svg width="52" height="52" viewBox="0 0 52 52" fill="none" xmlns="http://www.w3.org/2000/svg">
<circle cx="26" cy="26" r="26" fill="#F4F4F4"/>
<path d="M27.8867 25.3633H45.9993" stroke="black" stroke-linecap="round"/>
<path d="M36.8516 18.1406V19.329" stroke="black" stroke-linecap="round"/>
<path d="M33.0627 25.4531C33.0319 25.9407 33.3214 26.8791 34.7261 26.7329" stroke="black" stroke-linecap="round"/>
<path d="M34.7266 26.7344V28.654" stroke="black" stroke-linecap="round"/>
<path d="M23.543 28.9277V30.756" stroke="black" stroke-linecap="round"/>
<path d="M34.0795 37.6111V28.7441H38.238V39.7135C37.5295 41.298 35.4102 43.4431 32.6009 39.3479C31.8423 38.4366 31.1697 37.6007 30.7433 37.0633C30.6249 36.9141 30.3831 36.9981 30.3831 37.1885V40.9988C30.3831 41.5511 29.9353 41.9988 29.3831 41.9988H13.0098" stroke="black" stroke-linecap="round"/>
<path d="M16.9824 37.7031V41.9995" stroke="black" stroke-linecap="round"/>
<path d="M19.9395 33.6819V29.1113L22.7118 31.045V32.2756L19.9395 33.6819Z" stroke="black" stroke-linecap="round"/>
<path d="M22.5273 30.9395H24.3756" stroke="black" stroke-linecap="round"/>
<path d="M22.5273 32.4004H24.3756" stroke="black" stroke-linecap="round"/>
<path d="M27.1484 33.6819V29.1113L24.3761 31.045V32.2756L27.1484 33.6819Z" stroke="black" stroke-linecap="round"/>
<path d="M20.4941 27.1914L23.4513 29.0196L26.5933 27.1914L28.3491 30.4822C29.8585 30.9393 33.099 32.5481 33.9862 35.327" stroke="black" stroke-linecap="round"/>
<path d="M21.3261 27.373H20.402L18.6462 30.5725C16.6747 31.2123 12.7873 33.0589 13.0091 35.3259C13.0091 37.7391 13.0091 40.6582 13.0091 41.8161V41.9989" stroke="black" stroke-linecap="round"/>
<path d="M21.3262 24.7227V27.6478" stroke="black" stroke-linecap="round"/>
<path d="M25.6699 24.7227V27.7392" stroke="black" stroke-linecap="round"/>
<path d="M18.5527 17.7752H22.3416C23.3273 17.6533 25.3542 16.8245 25.576 14.4844" stroke="black" stroke-linecap="round"/>
<path d="M28.8106 17.8666C27.8556 17.8666 25.9458 17.2633 25.5762 14.4844" stroke="black" stroke-linecap="round"/>
<rect x="18.4062" y="9.5" width="10.2742" height="15.6369" rx="5.13708" stroke="black"/>
<path d="M18.3691 17.8669C18.15 17.8211 17.6201 17.9522 17.4082 18.021C17.1964 18.0898 17.0099 18.2124 16.8705 18.3747C16.731 18.5369 16.6443 18.7321 16.6202 18.9379C16.5961 19.1436 16.6356 19.3514 16.7343 19.5373C16.833 19.7232 16.9867 19.8796 17.1777 19.9885C17.3688 20.0973 17.5894 20.1542 17.814 20.1525C18.0387 20.1507 18.2582 20.0905 18.4473 19.9788" stroke="black"/>
<path d="M28.8907 17.9684C29.1098 17.9226 29.6397 18.0538 29.8515 18.1226C30.0634 18.1914 30.2498 18.314 30.3893 18.4762C30.5287 18.6385 30.6155 18.8337 30.6396 19.0394C30.6637 19.2452 30.6241 19.453 30.5255 19.6389C30.4268 19.8248 30.2731 19.9812 30.082 20.09C29.891 20.1989 29.6704 20.2557 29.4457 20.254C29.2211 20.2523 29.0015 20.1921 28.8125 20.0804" stroke="black"/>
<path d="M42.8584 25.6379C42.8584 23.9893 42.2158 22.4082 41.072 21.2425C39.9282 20.0768 38.3769 19.4219 36.7593 19.4219C35.1417 19.4219 33.5904 20.0768 32.4466 21.2425C31.3027 22.4082 30.6602 23.9893 30.6602 25.6379" stroke="black"/>
<path d="M40.6393 25.3633C40.9165 25.9727 40.6393 27.1367 37.3125 26.9173" stroke="black" stroke-linecap="round"/>
<path d="M37.3125 26.916V28.7442" stroke="black" stroke-linecap="round"/>
<path d="M22.25 22.3457C22.6196 22.8637 23.6546 23.5889 24.8375 22.3457" stroke="black" stroke-linecap="round"/>
</svg>
