<svg width="53" height="52" viewBox="0 0 53 52" fill="none" xmlns="http://www.w3.org/2000/svg">
<circle cx="26.666" cy="26" r="26" fill="#F4F4F4"/>
<path d="M25.2702 31.525L24.6309 34.1689L23.63 33.5116L25.2702 31.525ZM20.5227 31.5323L22.1468 33.5125L21.161 34.1659L20.5227 31.5323Z" fill="#81C784" stroke="black"/>
<mask id="path-3-inside-1_2611_16645" fill="white">
<path d="M36.6394 38.9237C36.6394 38.9237 36.3209 27.1031 42.6661 24.7695C42.6661 24.7695 40.5332 26.699 38.882 30.0041C37.279 33.2101 37.0435 34.9604 36.6394 38.9237Z"/>
</mask>
<path d="M36.6394 38.9237C36.6394 38.9237 36.3209 27.1031 42.6661 24.7695C42.6661 24.7695 40.5332 26.699 38.882 30.0041C37.279 33.2101 37.0435 34.9604 36.6394 38.9237Z" fill="#7CB342"/>
<path d="M36.6394 38.9237L35.6397 38.9507L37.6342 39.0252L36.6394 38.9237ZM42.6661 24.7695L43.337 25.5111L42.3209 23.831L42.6661 24.7695ZM38.882 30.0041L39.7764 30.4513L39.7766 30.451L38.882 30.0041ZM36.6394 38.9237C37.639 38.8968 37.639 38.897 37.639 38.8972C37.639 38.8972 37.639 38.8973 37.639 38.8973C37.639 38.8973 37.639 38.8972 37.639 38.8968C37.639 38.8961 37.639 38.8947 37.6389 38.8925C37.6388 38.8883 37.6387 38.8813 37.6385 38.8715C37.6381 38.8521 37.6377 38.8218 37.6373 38.7814C37.6366 38.7006 37.6363 38.5793 37.638 38.4225C37.6415 38.1089 37.6534 37.6546 37.6869 37.1007C37.7542 35.99 37.9077 34.4941 38.25 32.9364C38.9569 29.7197 40.369 26.6798 43.0113 25.7081L42.3209 23.831C38.618 25.1929 37.0168 29.23 36.2966 32.5071C35.9254 34.1963 35.7619 35.8013 35.6906 36.9799C35.6548 37.5707 35.642 38.0581 35.6381 38.4C35.6362 38.5711 35.6365 38.7059 35.6374 38.7994C35.6378 38.8462 35.6384 38.8826 35.6388 38.908C35.639 38.9207 35.6393 38.9307 35.6394 38.9378C35.6395 38.9414 35.6396 38.9442 35.6396 38.9464C35.6396 38.9475 35.6397 38.9484 35.6397 38.9491C35.6397 38.9494 35.6397 38.9498 35.6397 38.95C35.6397 38.9504 35.6397 38.9507 36.6394 38.9237ZM42.6661 24.7695C41.9952 24.028 41.995 24.0281 41.9949 24.0283C41.9948 24.0283 41.9946 24.0285 41.9944 24.0287C41.9942 24.0289 41.9938 24.0292 41.9935 24.0295C41.9928 24.0302 41.9919 24.0309 41.991 24.0318C41.989 24.0336 41.9866 24.0358 41.9836 24.0386C41.9777 24.044 41.9697 24.0513 41.9598 24.0606C41.9401 24.079 41.9125 24.1049 41.8779 24.1383C41.8086 24.2049 41.7107 24.3012 41.5895 24.4261C41.3472 24.6756 41.0109 25.04 40.6222 25.5106C39.8461 26.4503 38.8542 27.8222 37.9874 29.5572L39.7766 30.451C40.561 28.881 41.4611 27.6355 42.1643 26.7842C42.5152 26.3593 42.8153 26.0347 43.0245 25.8192C43.1291 25.7115 43.2107 25.6313 43.2645 25.5795C43.2914 25.5536 43.3113 25.5349 43.3236 25.5235C43.3298 25.5177 43.334 25.5138 43.3362 25.5118C43.3374 25.5107 43.338 25.5102 43.3381 25.5101C43.3382 25.51 43.3381 25.5101 43.3379 25.5102C43.3378 25.5103 43.3377 25.5104 43.3375 25.5106C43.3375 25.5107 43.3373 25.5108 43.3373 25.5108C43.3371 25.511 43.337 25.5111 42.6661 24.7695ZM37.9876 29.5569C36.3024 32.9273 36.0523 34.8228 35.6445 38.8223L37.6342 39.0252C38.0346 35.0979 38.2556 33.493 39.7764 30.4513L37.9876 29.5569Z" fill="black" mask="url(#path-3-inside-1_2611_16645)"/>
<mask id="path-5-inside-2_2611_16645" fill="white">
<path d="M36.3873 39.8472C36.3873 39.8472 34.0484 24.2291 42.6629 21.0605C42.6629 21.0605 39.3258 23.3032 38.1028 26.9722C36.6095 31.4574 36.3793 34.9579 36.3873 39.8472Z"/>
</mask>
<path d="M36.3873 39.8472C36.3873 39.8472 34.0484 24.2291 42.6629 21.0605C42.6629 21.0605 39.3258 23.3032 38.1028 26.9722C36.6095 31.4574 36.3793 34.9579 36.3873 39.8472Z" fill="#7CB342"/>
<path d="M36.3873 39.8472L35.3984 39.9953L37.3873 39.8456L36.3873 39.8472ZM42.6629 21.0605L43.2207 21.8905L42.3177 20.122L42.6629 21.0605ZM38.1028 26.9722L37.1541 26.656L37.154 26.6563L38.1028 26.9722ZM36.3873 39.8472C37.3763 39.6991 37.3763 39.6993 37.3764 39.6995C37.3764 39.6994 37.3764 39.6995 37.3764 39.6995C37.3764 39.6994 37.3763 39.699 37.3762 39.6985C37.376 39.6973 37.3757 39.6952 37.3753 39.6922C37.3744 39.6862 37.373 39.6765 37.3712 39.6633C37.3675 39.6367 37.3618 39.5959 37.3548 39.5416C37.3406 39.4331 37.3205 39.2709 37.2978 39.0618C37.2523 38.6434 37.1961 38.0386 37.1549 37.3015C37.0723 35.8238 37.0506 33.8325 37.2882 31.7558C37.7755 27.4972 39.2871 23.3677 43.0081 21.9991L42.3177 20.122C37.4242 21.9219 35.798 27.1858 35.3012 31.5284C35.0467 33.7523 35.0713 35.8635 35.158 37.4132C35.2015 38.1899 35.2608 38.8299 35.3095 39.2781C35.3339 39.5022 35.3557 39.6786 35.3716 39.8004C35.3795 39.8613 35.386 39.9086 35.3906 39.9413C35.3929 39.9577 35.3947 39.9705 35.396 39.9795C35.3967 39.984 35.3972 39.9876 35.3976 39.9902C35.3978 39.9916 35.398 39.9926 35.3981 39.9935C35.3982 39.9939 35.3982 39.9944 35.3983 39.9946C35.3983 39.995 35.3984 39.9953 36.3873 39.8472ZM42.6629 21.0605C42.1052 20.2306 42.1049 20.2307 42.1047 20.2309C42.1045 20.231 42.1043 20.2312 42.1041 20.2313C42.1036 20.2316 42.1032 20.2319 42.1026 20.2322C42.1016 20.233 42.1003 20.2338 42.0989 20.2348C42.096 20.2368 42.0923 20.2393 42.0878 20.2424C42.0788 20.2485 42.0667 20.2569 42.0516 20.2674C42.0215 20.2886 41.9794 20.3184 41.9268 20.3569C41.8216 20.4338 41.674 20.5453 41.4948 20.6897C41.1371 20.9781 40.6503 21.4005 40.1231 21.9448C39.0766 23.0254 37.8298 24.6287 37.1541 26.656L39.0514 27.2884C39.5987 25.6467 40.632 24.2942 41.5598 23.3362C42.0198 22.8612 42.4438 22.4937 42.7499 22.2469C42.9027 22.1237 43.0254 22.0313 43.1075 21.9712C43.1485 21.9412 43.1794 21.9193 43.1987 21.9058C43.2083 21.8991 43.2151 21.8944 43.2188 21.8918C43.2207 21.8906 43.2218 21.8898 43.2221 21.8896C43.2223 21.8895 43.2222 21.8895 43.222 21.8897C43.2219 21.8897 43.2217 21.8899 43.2215 21.89C43.2214 21.8901 43.2212 21.8902 43.2211 21.8902C43.2209 21.8904 43.2207 21.8905 42.6629 21.0605ZM37.154 26.6563C35.6111 31.2905 35.3792 34.915 35.3873 39.8488L37.3873 39.8456C37.3794 35.0007 37.6078 31.6244 39.0516 27.2881L37.154 26.6563Z" fill="black" mask="url(#path-5-inside-2_2611_16645)"/>
<path d="M36.286 38.9642C36.1522 38.9642 36.0371 38.8599 36.0291 38.7261L35.8739 36.6975C35.8685 36.6279 35.8899 36.561 35.9354 36.5102C35.9809 36.4593 36.0425 36.4272 36.112 36.4219H36.1147C36.2672 36.4219 36.3796 36.5262 36.3903 36.6601L36.5456 38.6886C36.5563 38.8304 36.4492 38.9562 36.3074 38.9669C36.302 38.9642 36.2913 38.9642 36.286 38.9642Z" fill="black"/>
<mask id="path-8-inside-3_2611_16645" fill="white">
<path d="M36.1301 36.5547C36.1943 36.5547 36.2505 36.6056 36.2559 36.6698L36.4111 38.6983C36.4165 38.7679 36.3656 38.8268 36.296 38.8321H36.2853C36.2211 38.8321 36.1649 38.7813 36.1595 38.7171L36.0043 36.6885C35.999 36.619 36.0498 36.5601 36.1194 36.5547H36.1301ZM36.1301 36.2871H36.1007C35.8839 36.3032 35.7233 36.4932 35.7394 36.7099L35.8946 38.7385C35.9107 38.9419 36.0819 39.0998 36.2853 39.0998H36.3148C36.5315 39.0837 36.6921 38.8937 36.676 38.6769L36.5208 36.6484C36.5128 36.5502 36.4682 36.4586 36.3958 36.3917C36.3235 36.3248 36.2286 36.2875 36.1301 36.2871Z"/>
</mask>
<path d="M36.1301 36.5547C36.1943 36.5547 36.2505 36.6056 36.2559 36.6698L36.4111 38.6983C36.4165 38.7679 36.3656 38.8268 36.296 38.8321H36.2853C36.2211 38.8321 36.1649 38.7813 36.1595 38.7171L36.0043 36.6885C35.999 36.619 36.0498 36.5601 36.1194 36.5547H36.1301ZM36.1301 36.2871H36.1007C35.8839 36.3032 35.7233 36.4932 35.7394 36.7099L35.8946 38.7385C35.9107 38.9419 36.0819 39.0998 36.2853 39.0998H36.3148C36.5315 39.0837 36.6921 38.8937 36.676 38.6769L36.5208 36.6484C36.5128 36.5502 36.4682 36.4586 36.3958 36.3917C36.3235 36.3248 36.2286 36.2875 36.1301 36.2871Z" fill="white"/>
<path d="M36.2559 36.6698L37.253 36.5935L37.2524 36.5868L36.2559 36.6698ZM36.4111 38.6983L35.414 38.7746L35.414 38.775L36.4111 38.6983ZM36.296 38.8321V39.8321H36.3344L36.3727 39.8292L36.296 38.8321ZM36.1595 38.7171L35.1624 38.7934L35.163 38.8001L36.1595 38.7171ZM36.0043 36.6885L37.0014 36.6122L37.0014 36.6118L36.0043 36.6885ZM36.1194 36.5547V35.5547H36.081L36.0427 35.5577L36.1194 36.5547ZM36.1301 36.2871L36.1336 35.2871H36.1301V36.2871ZM36.1007 36.2871V35.2871H36.0637L36.0268 35.2898L36.1007 36.2871ZM35.7394 36.7099L34.7421 36.7838L34.7423 36.7862L35.7394 36.7099ZM35.8946 38.7385L34.8975 38.8148L34.8977 38.8172L35.8946 38.7385ZM36.3148 39.0998V40.0998H36.3517L36.3886 40.097L36.3148 39.0998ZM36.676 38.6769L37.6733 38.603L37.6731 38.6006L36.676 38.6769ZM36.5208 36.6484L37.5179 36.5721L37.5175 36.5668L36.5208 36.6484ZM36.1301 37.5547C35.6825 37.5547 35.2979 37.2151 35.2593 36.7528L37.2524 36.5868C37.2032 35.9961 36.7062 35.5547 36.1301 35.5547V37.5547ZM35.2588 36.7461L35.414 38.7746L37.4082 38.622L37.253 36.5935L35.2588 36.7461ZM35.414 38.775C35.3767 38.2897 35.7426 37.8718 36.2193 37.8351L36.3727 39.8292C36.9887 39.7818 37.4562 39.2462 37.4082 38.6216L35.414 38.775ZM36.296 37.8321H36.2853V39.8321H36.296V37.8321ZM36.2853 37.8321C36.7329 37.8321 37.1176 38.1718 37.1561 38.634L35.163 38.8001C35.2122 39.3908 35.7093 39.8321 36.2853 39.8321V37.8321ZM37.1566 38.6408L37.0014 36.6122L35.0072 36.7648L35.1625 38.7934L37.1566 38.6408ZM37.0014 36.6118C37.0387 37.0972 36.6729 37.5151 36.1961 37.5518L36.0427 35.5577C35.4268 35.6051 34.9592 36.1407 35.0073 36.7652L37.0014 36.6118ZM36.1194 37.5547H36.1301V35.5547H36.1194V37.5547ZM36.1301 35.2871H36.1007V37.2871H36.1301V35.2871ZM36.0268 35.2898C35.2479 35.3475 34.6861 36.0277 34.7421 36.7838L36.7367 36.6361C36.7605 36.9586 36.5199 37.2588 36.1745 37.2844L36.0268 35.2898ZM34.7423 36.7862L34.8975 38.8148L36.8917 38.6622L36.7365 36.6337L34.7423 36.7862ZM34.8977 38.8172C34.9549 39.5411 35.5605 40.0998 36.2853 40.0998V38.0998C36.6033 38.0998 36.8665 38.3427 36.8915 38.6598L34.8977 38.8172ZM36.2853 40.0998H36.3148V38.0998H36.2853V40.0998ZM36.3886 40.097C37.1676 40.0393 37.7293 39.3591 37.6733 38.603L35.6788 38.7508C35.6549 38.4282 35.8955 38.1281 36.2409 38.1025L36.3886 40.097ZM37.6731 38.6006L37.5179 36.5721L35.5237 36.7247L35.679 38.7532L37.6731 38.6006ZM37.5175 36.5668C37.489 36.2189 37.331 35.8944 37.0747 35.6574L35.7169 37.1259C35.6054 37.0227 35.5366 36.8815 35.5242 36.73L37.5175 36.5668ZM37.0747 35.6574C36.8185 35.4205 36.4826 35.2883 36.1336 35.2871L36.1266 37.2871C35.9747 37.2866 35.8285 37.229 35.7169 37.1259L37.0747 35.6574Z" fill="black" mask="url(#path-8-inside-3_2611_16645)"/>
<path d="M38.249 23.1878C38.1929 23.2368 38.0788 23.3148 37.9365 23.4027C37.9323 23.3708 37.9287 23.3397 37.926 23.31C37.9182 23.2254 37.9193 23.1751 37.9215 23.1569L37.9215 23.1569L37.9221 23.1512C37.9443 22.9399 38.0918 22.6021 38.3028 22.3591L38.3028 22.3592L38.3073 22.3539C38.4365 22.2009 38.6373 22.0265 38.8683 21.8847C38.9752 21.8191 39.081 21.765 39.182 21.7235C39.1704 21.8382 39.1359 21.9875 39.0622 22.1794C38.9299 22.5159 38.6167 22.8493 38.249 23.1878Z" fill="#FFB300" stroke="black"/>
<path d="M35.2412 33.2132L35.2413 33.2132L35.2363 33.2091C35.0001 33.0164 34.7484 32.6681 34.6343 32.3745L34.6344 32.3745L34.6327 32.3703C34.555 32.1757 34.5038 31.9293 34.502 31.6956C34.5014 31.6207 34.5059 31.5529 34.5141 31.4923C34.7012 31.6236 34.8861 31.8143 35.0414 32.0114L35.0415 32.0115C35.3075 32.3487 35.4435 32.7852 35.551 33.243C35.5586 33.2795 35.5649 33.34 35.5682 33.4228C35.4189 33.3378 35.296 33.259 35.2412 33.2132Z" fill="black" stroke="black"/>
<path d="M34.3129 30.9885C34.709 31.1009 35.0756 31.4649 35.3298 31.786C35.6483 32.1901 35.8008 32.6986 35.9079 33.1642C35.9641 33.4265 35.9213 34.0126 35.924 34.0126C35.9213 34.0126 35.2736 33.7182 35.006 33.4961C34.7116 33.2552 34.4253 32.8538 34.2915 32.5113C34.1095 32.0536 34.048 31.3712 34.3129 30.9885ZM34.3129 30.7209C34.2273 30.7209 34.1443 30.7611 34.0935 30.836C33.7616 31.3123 33.8339 32.0884 34.0426 32.6103C34.1952 33.001 34.5136 33.4399 34.8348 33.7048C35.0301 33.8654 35.7687 34.2829 35.9213 34.2829C36.0631 34.2829 36.1809 34.1732 36.1889 34.0313V34.0126L36.1916 33.9751C36.2049 33.6888 36.2157 33.3328 36.1675 33.1107C36.0551 32.6237 35.8945 32.0724 35.5386 31.6228C35.2763 31.2909 34.8615 30.8708 34.3852 30.7343C34.3625 30.7242 34.3377 30.7196 34.3129 30.7209Z" fill="white"/>
<path d="M36.5905 33.1232C36.5911 33.1261 36.5918 33.1295 36.5927 33.1336C36.5976 33.157 36.6056 33.1912 36.6165 33.2335C36.6357 33.3082 36.6618 33.3996 36.6918 33.49C36.6984 33.4859 36.705 33.4818 36.7115 33.4777C36.8453 33.3935 36.9387 33.3241 36.9816 33.2819C37.1279 33.1307 37.2783 32.8536 37.3381 32.5909C37.3728 32.423 37.3915 32.2065 37.3734 31.9929C37.3642 31.8851 37.3465 31.7869 37.3213 31.7002C37.1603 31.7713 36.9842 31.8999 36.8288 32.0914L36.5905 33.1232ZM36.5905 33.1232C36.5616 32.6224 36.6718 32.2849 36.8288 32.0914L36.5905 33.1232Z" fill="black" stroke="black"/>
<path d="M37.5245 31.2735C37.7814 31.6695 37.7788 32.269 37.6905 32.6704C37.6209 32.9728 37.4496 33.3234 37.2355 33.5402C37.0401 33.7355 36.5103 34.0139 36.5103 34.0139C36.5076 34.0139 36.2346 33.4305 36.2239 33.1682C36.1945 32.7079 36.256 32.2101 36.5424 31.8622C36.7672 31.5839 37.1285 31.3056 37.5245 31.2735ZM37.5245 31.0059H37.5031C37.0937 31.038 36.6548 31.2976 36.3336 31.6936C36.0473 32.0442 35.9162 32.5607 35.9563 33.1843C35.9617 33.3181 36.0152 33.5188 36.1195 33.7837C36.2641 34.153 36.3122 34.2788 36.5103 34.2788C36.5584 34.2788 36.6039 34.2654 36.6414 34.244C36.909 34.0995 37.2542 33.8961 37.4255 33.7275C37.6637 33.4867 37.8698 33.0933 37.9527 32.7266C38.0544 32.2556 38.0517 31.5919 37.7493 31.1236C37.7012 31.0514 37.6155 31.0059 37.5245 31.0059Z" fill="white"/>
<path d="M35.4137 35.5855L35.4138 35.5854L35.4066 35.5796C35.2059 35.4167 34.9886 35.1165 34.8904 34.8668L34.8904 34.8668L34.8887 34.8627C34.8239 34.702 34.7783 34.4953 34.7755 34.2975C34.775 34.2607 34.776 34.2259 34.7782 34.1932C34.9158 34.3006 35.0522 34.4435 35.1734 34.5952C35.3983 34.8809 35.5155 35.2547 35.6096 35.656C35.6132 35.6741 35.6162 35.6957 35.6186 35.7202C35.5201 35.6616 35.4452 35.612 35.4137 35.5855Z" fill="black" stroke="black"/>
<path d="M34.5688 33.6661C34.9167 33.7651 35.2378 34.0835 35.46 34.3645C35.741 34.7205 35.8721 35.1647 35.9658 35.5742C36.0139 35.8043 35.9765 36.3181 35.9791 36.3181C35.9765 36.3181 35.4064 36.0585 35.1736 35.8659C34.914 35.6544 34.6651 35.3039 34.5474 35.0015C34.3895 34.6 34.3333 34.0006 34.5688 33.6661ZM34.5688 33.3984C34.4832 33.3984 34.4002 33.4386 34.3494 33.5135C34.0496 33.9417 34.1139 34.6348 34.3012 35.1005C34.4377 35.4511 34.716 35.8337 35.0077 36.0719C35.1683 36.2057 35.832 36.5857 35.9818 36.5857C36.0505 36.5858 36.1167 36.5595 36.1665 36.5122C36.2163 36.4648 36.246 36.4001 36.2494 36.3315V36.3128L36.2521 36.2807C36.2628 36.0264 36.2735 35.7133 36.2307 35.5153C36.1317 35.0844 35.9872 34.5974 35.6714 34.1959C35.4386 33.9016 35.0692 33.5269 34.6437 33.4065C34.617 33.4011 34.5929 33.3984 34.5688 33.3984Z" fill="white"/>
<path d="M36.819 34.6644L36.8196 34.6637C36.937 34.519 37.0672 34.418 37.1873 34.3558C37.2015 34.4154 37.212 34.4812 37.2181 34.5524C37.2338 34.7353 37.2176 34.9204 37.1875 35.0626C37.136 35.2877 37.0072 35.5229 36.8866 35.6483C36.8572 35.6769 36.791 35.7272 36.6914 35.7914C36.6721 35.7282 36.6554 35.6666 36.6423 35.6145C36.633 35.5774 36.6259 35.547 36.6214 35.5263L36.6207 35.5233C36.597 35.0991 36.693 34.8191 36.819 34.6644Z" fill="black" stroke="black"/>
<path d="M37.3988 33.918C37.6236 34.2632 37.621 34.7905 37.546 35.1437C37.4872 35.4086 37.3346 35.7164 37.1473 35.9064C36.976 36.0777 36.5104 36.3212 36.5104 36.3212C36.5077 36.3212 36.2695 35.8101 36.2588 35.5799C36.232 35.1758 36.2882 34.7396 36.5371 34.4345C36.7352 34.191 37.0536 33.9448 37.3988 33.918ZM37.3988 33.6504H37.3774C37.0081 33.6798 36.6174 33.91 36.3284 34.2659C36.0715 34.5817 35.9537 35.042 35.9912 35.596C35.9912 35.6013 36.1464 36.5888 36.5104 36.5888C36.5585 36.5888 36.604 36.5755 36.6415 36.554C36.8797 36.4256 37.1848 36.2463 37.3346 36.0964C37.546 35.8796 37.7307 35.5291 37.8056 35.2026C37.8966 34.7824 37.8939 34.1883 37.621 33.7708C37.5973 33.7335 37.5644 33.7028 37.5255 33.6818C37.4867 33.6607 37.4431 33.6499 37.3988 33.6504Z" fill="white"/>
<path d="M35.0781 30.5004L35.0782 30.5004L35.0756 30.4976C34.8824 30.2926 34.7003 29.9372 34.6429 29.6445L34.643 29.6444L34.6417 29.6386C34.6018 29.4468 34.5965 29.2039 34.6389 28.9738C34.6571 28.8754 34.6823 28.7879 34.7123 28.7125C34.8743 28.8508 35.0245 29.0523 35.1482 29.2651C35.3437 29.6071 35.3972 30.0392 35.4159 30.499C35.4159 30.5583 35.4046 30.6456 35.3864 30.7472C35.3282 30.7054 35.2719 30.6632 35.2218 30.6237C35.1396 30.559 35.0931 30.5165 35.0781 30.5004Z" fill="black" stroke="black"/>
<path d="M34.591 28.2149C34.9683 28.3567 35.268 28.7448 35.4634 29.0793C35.7069 29.5048 35.7631 30.0186 35.7792 30.4896C35.7845 30.7546 35.624 31.3353 35.6293 31.3353C35.6267 31.3353 35.0325 30.9901 34.8104 30.7492C34.5615 30.487 34.3528 30.0668 34.2832 29.7135C34.1869 29.2479 34.2511 28.5681 34.591 28.2149ZM34.591 27.9473C34.5187 27.9473 34.4491 27.9767 34.3983 28.0302C33.9808 28.4664 33.9112 29.2372 34.021 29.7697C34.1012 30.1792 34.3341 30.6368 34.6151 30.9339C34.7569 31.0864 35.4554 31.6056 35.6293 31.6056C35.7578 31.6056 35.8702 31.5119 35.8916 31.3861L35.8996 31.3514C35.9638 31.0891 36.0495 30.7117 36.0468 30.487C36.0281 29.9945 35.9719 29.4299 35.6962 28.9482C35.4902 28.5949 35.1503 28.14 34.6873 27.966C34.6568 27.9534 34.624 27.947 34.591 27.9473Z" fill="white"/>
<path d="M36.8158 30.6679C36.7458 30.7204 36.6224 30.7873 36.4785 30.8564C36.4704 30.7993 36.464 30.7438 36.4599 30.6937C36.4567 30.6544 36.4552 30.6218 36.4551 30.5965C36.455 30.5773 36.4557 30.5672 36.4559 30.5643L36.457 30.5559C36.522 30.05 36.6976 29.7095 36.9104 29.5159L36.9104 29.5159L36.9127 29.5137C36.9637 29.4668 37.0898 29.3589 37.2561 29.2647C37.3331 29.2211 37.4117 29.1845 37.4899 29.1574C37.494 29.2292 37.4919 29.3089 37.4827 29.3955C37.4601 29.6076 37.3988 29.8207 37.3293 29.9848C37.2156 30.2473 37.0048 30.5204 36.8158 30.6679Z" fill="black" stroke="black"/>
<path d="M37.7647 28.7403C37.9494 29.1497 37.8316 29.7412 37.6657 30.1346C37.5373 30.4289 37.2964 30.7635 37.0368 30.9642C36.8013 31.1435 36.2126 31.379 36.2152 31.379C36.2126 31.379 36.0547 30.7742 36.0948 30.5146C36.1537 30.0543 36.3143 29.5699 36.6675 29.2461C36.9432 28.9865 37.3606 28.7403 37.7647 28.7403ZM37.7647 28.4727C37.3526 28.4727 36.8736 28.6894 36.4829 29.048C36.135 29.3665 35.9075 29.8616 35.8272 30.4771C35.7897 30.7206 35.9128 31.4352 36.0119 31.5502C36.0627 31.6091 36.1376 31.6439 36.2152 31.6439C36.2313 31.6439 36.25 31.6412 36.2688 31.6386C36.2875 31.6359 36.3062 31.6279 36.3223 31.6225C36.6193 31.4994 37.002 31.3281 37.2001 31.1756C37.4811 30.9588 37.7594 30.5922 37.9119 30.2389C38.1046 29.7813 38.2304 29.1203 38.0083 28.6306C37.9875 28.5833 37.9534 28.5432 37.9101 28.5152C37.8669 28.4871 37.8163 28.4723 37.7647 28.4727Z" fill="white"/>
<path d="M35.4069 27.9276C35.4068 27.9275 35.4067 27.9273 35.4066 27.9273L35.4029 27.9222C35.2533 27.7183 35.1337 27.3644 35.1277 27.0782L35.1277 27.0782L35.1276 27.073C35.1217 26.8856 35.1579 26.6481 35.2408 26.4245C35.2821 26.313 35.3312 26.2151 35.385 26.1328C35.5186 26.2737 35.6322 26.4747 35.7182 26.6904C35.8517 27.0263 35.8317 27.4442 35.7663 27.9022C35.7544 27.969 35.7204 28.0729 35.6752 28.1921C35.6175 28.1405 35.5621 28.0886 35.5147 28.0418C35.4819 28.0095 35.4548 27.9815 35.4343 27.959C35.4171 27.9402 35.4089 27.9301 35.4069 27.9276Z" stroke="black"/>
<mask id="path-24-inside-4_2611_16645" fill="white">
<path d="M35.3353 25.6426C35.6913 25.8112 35.9241 26.21 36.0606 26.5525C36.2318 26.9861 36.1971 27.4919 36.1302 27.9575C36.0873 28.2171 35.8251 28.7764 35.8277 28.7791C35.8251 28.7791 35.2898 28.3937 35.1079 28.1395C34.9045 27.8612 34.768 27.433 34.7626 27.0851C34.7466 26.6194 34.9312 25.9611 35.3353 25.6426ZM35.3353 25.375C35.2765 25.375 35.2176 25.3937 35.1694 25.4339C34.6823 25.8192 34.479 26.5632 34.495 27.0931C34.503 27.5052 34.6583 27.9789 34.8938 28.2974C34.9848 28.4258 35.6297 29.0467 35.8277 29.0467C35.9401 29.0467 36.0392 28.9771 36.0793 28.8728L36.0927 28.8406C36.2051 28.5864 36.3576 28.2251 36.3951 28.0003C36.4647 27.5133 36.5075 26.9539 36.3095 26.4535C36.1623 26.0895 35.8947 25.6105 35.4477 25.3991C35.4125 25.3829 35.3741 25.3747 35.3353 25.375Z"/>
</mask>
<path d="M35.3353 25.6426C35.6913 25.8112 35.9241 26.21 36.0606 26.5525C36.2318 26.9861 36.1971 27.4919 36.1302 27.9575C36.0873 28.2171 35.8251 28.7764 35.8277 28.7791C35.8251 28.7791 35.2898 28.3937 35.1079 28.1395C34.9045 27.8612 34.768 27.433 34.7626 27.0851C34.7466 26.6194 34.9312 25.9611 35.3353 25.6426ZM35.3353 25.375C35.2765 25.375 35.2176 25.3937 35.1694 25.4339C34.6823 25.8192 34.479 26.5632 34.495 27.0931C34.503 27.5052 34.6583 27.9789 34.8938 28.2974C34.9848 28.4258 35.6297 29.0467 35.8277 29.0467C35.9401 29.0467 36.0392 28.9771 36.0793 28.8728L36.0927 28.8406C36.2051 28.5864 36.3576 28.2251 36.3951 28.0003C36.4647 27.5133 36.5075 26.9539 36.3095 26.4535C36.1623 26.0895 35.8947 25.6105 35.4477 25.3991C35.4125 25.3829 35.3741 25.3747 35.3353 25.375Z" fill="white"/>
<path d="M35.3353 25.6426L35.7634 24.7389L35.2032 24.4735L34.7164 24.8572L35.3353 25.6426ZM36.0606 26.5525L36.9906 26.1851L36.9895 26.1824L36.0606 26.5525ZM36.1302 27.9575L37.1168 28.1203L37.1185 28.11L37.12 28.0997L36.1302 27.9575ZM35.8277 28.7791V29.7791H38.242L36.5349 28.072L35.8277 28.7791ZM35.1079 28.1395L35.9211 27.5574L35.9153 27.5495L35.1079 28.1395ZM34.7626 27.0851L35.7625 27.0697L35.7624 27.0601L35.762 27.0506L34.7626 27.0851ZM35.3353 25.375V26.375L35.3429 26.375L35.3353 25.375ZM35.1694 25.4339L35.7899 26.2181L35.7998 26.2102L35.8096 26.2021L35.1694 25.4339ZM34.495 27.0931L35.4949 27.0736L35.4946 27.0628L34.495 27.0931ZM34.8938 28.2974L35.7098 27.7194L35.7039 27.711L35.6978 27.7028L34.8938 28.2974ZM36.0793 28.8728L35.1562 28.4881L35.1509 28.5009L35.146 28.5138L36.0793 28.8728ZM36.0927 28.8406L35.1781 28.4363L35.1737 28.4461L35.1696 28.456L36.0927 28.8406ZM36.3951 28.0003L37.3815 28.1647L37.3834 28.1533L37.385 28.1417L36.3951 28.0003ZM36.3095 26.4535L37.2393 26.0855L37.2365 26.0786L36.3095 26.4535ZM35.4477 25.3991L35.8754 24.4951L35.8644 24.49L35.4477 25.3991ZM34.9072 26.5464C34.8881 26.5373 34.9159 26.5446 34.9734 26.6231C35.0289 26.6989 35.0841 26.8034 35.1316 26.9227L36.9895 26.1824C36.834 25.7919 36.4807 25.0786 35.7634 24.7389L34.9072 26.5464ZM35.1305 26.9199C35.1973 27.0889 35.2054 27.3625 35.1403 27.8153L37.12 28.0997C37.1887 27.6212 37.2664 26.8832 36.9906 26.1851L35.1305 26.9199ZM35.1435 27.7948C35.1467 27.7752 35.1444 27.7953 35.1187 27.8701C35.0967 27.9343 35.0677 28.0094 35.0363 28.0861C35.0054 28.1617 34.9752 28.2316 34.9517 28.2853C34.9421 28.3072 34.928 28.3392 34.9215 28.3541C34.918 28.3622 34.912 28.3759 34.9064 28.3895C34.9044 28.3943 34.8971 28.4118 34.8892 28.4335C34.8865 28.4407 34.8751 28.4718 34.8639 28.5124C34.8596 28.5278 34.8447 28.582 34.8357 28.6533C34.8315 28.6859 34.8227 28.7652 34.8315 28.8662C34.8365 28.9227 34.8612 29.2268 35.1206 29.4862L36.5349 28.072C36.6219 28.1714 36.7393 28.3678 36.7748 28.458C36.7948 28.5246 36.8183 28.6419 36.8239 28.6918C36.8328 28.7928 36.8239 28.8721 36.8198 28.9046C36.8108 28.9756 36.7959 29.0296 36.7917 29.0447C36.7807 29.0847 36.7695 29.1149 36.7673 29.121C36.7602 29.1404 36.7543 29.1546 36.7541 29.155C36.752 29.16 36.7514 29.1612 36.7549 29.1532C36.7624 29.136 36.7687 29.1219 36.784 29.0869C36.8103 29.0269 36.8478 28.9402 36.8875 28.8431C36.9267 28.7473 36.9711 28.6337 37.0102 28.5199C37.0457 28.4167 37.0922 28.2696 37.1168 28.1203L35.1435 27.7948ZM35.8277 27.7791C35.9275 27.7841 36.0781 27.8109 36.1293 27.8256C36.1601 27.8359 36.2106 27.8553 36.2305 27.8638C36.2684 27.8805 36.2969 27.8959 36.3077 27.9018C36.3325 27.9154 36.3511 27.927 36.3565 27.9304C36.3707 27.9392 36.3813 27.9463 36.3837 27.9479C36.3878 27.9507 36.3909 27.9528 36.3923 27.9538C36.3939 27.9549 36.3951 27.9557 36.3955 27.9561C36.3968 27.957 36.3951 27.9558 36.3898 27.9519C36.3797 27.9446 36.3627 27.9321 36.3402 27.9153C36.2952 27.8814 36.2333 27.8338 36.1676 27.7801C36.1007 27.7255 36.0368 27.6703 35.9848 27.621C35.9591 27.5966 35.9401 27.5773 35.9271 27.5632C35.913 27.5478 35.913 27.5463 35.921 27.5574L34.2947 28.7215C34.4728 28.9703 34.7513 29.2057 34.9025 29.3292C34.9936 29.4036 35.0775 29.4681 35.1392 29.5145C35.1702 29.5378 35.1968 29.5573 35.2172 29.5721C35.2271 29.5793 35.2374 29.5866 35.2469 29.5933C35.2509 29.5962 35.2589 29.6017 35.2683 29.608C35.2717 29.6103 35.2832 29.618 35.2979 29.6272C35.3036 29.6308 35.3225 29.6426 35.3475 29.6562C35.3584 29.6622 35.3869 29.6776 35.4249 29.6944C35.4448 29.7029 35.4954 29.7222 35.5262 29.7325C35.5773 29.7472 35.728 29.7741 35.8277 29.7791V27.7791ZM35.9153 27.5495C35.8413 27.4483 35.7649 27.2236 35.7625 27.0697L33.7628 27.1005C33.7711 27.6423 33.9676 28.274 34.3005 28.7295L35.9153 27.5495ZM35.762 27.0506C35.7586 26.951 35.7785 26.7965 35.8322 26.6478C35.8576 26.5772 35.8859 26.5214 35.9118 26.4815C35.938 26.4412 35.9548 26.4277 35.9543 26.428L34.7164 24.8572C34.3189 25.1704 34.0839 25.6 33.9507 25.9695C33.815 26.346 33.7506 26.7535 33.7632 27.1195L35.762 27.0506ZM35.3353 24.375C35.0642 24.375 34.7731 24.4625 34.5292 24.6657L35.8096 26.2021C35.6621 26.325 35.4888 26.375 35.3353 26.375V24.375ZM34.5489 24.6497C34.118 24.9907 33.8558 25.4511 33.7042 25.8662C33.5514 26.2847 33.4835 26.7298 33.4955 27.1234L35.4946 27.0628C35.4904 26.9266 35.5162 26.7347 35.5828 26.5524C35.6507 26.3667 35.7338 26.2625 35.7899 26.2181L34.5489 24.6497ZM33.4952 27.1126C33.507 27.719 33.7233 28.3965 34.0897 28.892L35.6978 27.7028C35.5932 27.5613 35.4991 27.2915 35.4948 27.0736L33.4952 27.1126ZM34.0777 28.8754C34.1564 28.9865 34.2724 29.1051 34.3435 29.1761C34.4355 29.268 34.5479 29.3737 34.6652 29.4755C34.779 29.5743 34.9159 29.6855 35.0539 29.7781C35.122 29.8238 35.2103 29.8785 35.3102 29.9253C35.3861 29.9609 35.5796 30.0467 35.8277 30.0467V28.0467C35.9397 28.0467 36.0241 28.0675 36.0668 28.0801C36.113 28.0936 36.1448 28.1077 36.1588 28.1143C36.1851 28.1266 36.1899 28.1318 36.1683 28.1173C36.1268 28.0895 36.0596 28.0374 35.976 27.9649C35.896 27.8955 35.8177 27.8218 35.757 27.7612C35.7266 27.7308 35.7042 27.7073 35.6903 27.6921C35.6834 27.6845 35.681 27.6816 35.682 27.6829C35.6827 27.6836 35.6853 27.6867 35.6893 27.6918C35.693 27.6966 35.7004 27.7061 35.7098 27.7194L34.0777 28.8754ZM35.8277 30.0467C36.3625 30.0467 36.8271 29.7142 37.0127 29.2317L35.146 28.5138C35.2513 28.24 35.5178 28.0467 35.8277 28.0467V30.0467ZM37.0024 29.2574L37.0158 29.2253L35.1696 28.456L35.1562 28.4881L37.0024 29.2574ZM37.0073 29.245C37.104 29.0263 37.319 28.5399 37.3815 28.1647L35.4087 27.8359C35.4093 27.8324 35.4061 27.851 35.3919 27.8972C35.3786 27.9404 35.3602 27.9935 35.3368 28.0554C35.2896 28.1799 35.2321 28.3142 35.1781 28.4363L37.0073 29.245ZM37.385 28.1417C37.4568 27.6392 37.5415 26.8493 37.2393 26.0855L35.3796 26.8215C35.4735 27.0586 35.4725 27.3873 35.4051 27.8589L37.385 28.1417ZM37.2365 26.0786C37.0706 25.6683 36.682 24.8767 35.8754 24.4951L35.0201 26.3031C35.0498 26.3171 35.1091 26.358 35.1858 26.4621C35.2617 26.5652 35.3284 26.6949 35.3824 26.8284L37.2365 26.0786ZM35.8644 24.49C35.6961 24.4129 35.5129 24.3736 35.3278 24.375L35.3429 26.375C35.2353 26.3758 35.1289 26.353 35.0311 26.3082L35.8644 24.49Z" fill="black" mask="url(#path-24-inside-4_2611_16645)"/>
<path d="M37.272 28.1933C37.1982 28.236 37.0665 28.2927 36.9085 28.3515C36.9105 28.3105 36.9134 28.2712 36.9169 28.235C36.9243 28.1593 36.9325 28.1222 36.9342 28.1149C36.9343 28.1142 36.9344 28.1138 36.9345 28.1136L36.9345 28.1136L36.9378 28.1034C37.0942 27.6109 37.333 27.2789 37.595 27.0968L37.595 27.0968L37.5986 27.0942C37.8148 26.9411 38.0402 26.8399 38.2338 26.789C38.2251 26.8427 38.2121 26.9009 38.1942 26.9633C38.1359 27.1663 38.0367 27.373 37.9296 27.5431C37.7638 27.7973 37.4985 28.0571 37.272 28.1933Z" fill="#FFB300" stroke="black"/>
<path d="M38.5032 26.3848C38.53 26.3848 38.5568 26.3848 38.5835 26.3875C38.6959 26.7996 38.4738 27.3696 38.2383 27.7416C38.059 28.0199 37.7539 28.3331 37.4595 28.5097C37.1892 28.6676 36.5577 28.8549 36.5577 28.8576C36.555 28.8576 36.5041 28.2501 36.5898 27.9985C36.7316 27.5516 36.9778 27.086 37.3873 26.7996C37.6924 26.5802 38.1179 26.3848 38.5032 26.3848ZM38.5032 26.1172C37.9466 26.1172 37.4301 26.4383 37.2347 26.5775C36.8306 26.8612 36.5255 27.3108 36.3355 27.9156C36.2713 28.1056 36.2338 28.8629 36.3409 29.0128C36.3738 29.0591 36.4206 29.0936 36.4745 29.1114C36.5284 29.1293 36.5866 29.1294 36.6406 29.1118C36.9029 29.0315 37.3578 28.8817 37.596 28.7425C37.9118 28.5525 38.2517 28.218 38.4631 27.8915C38.7361 27.4579 38.9769 26.821 38.8404 26.3206C38.8259 26.2673 38.7952 26.2199 38.7525 26.1849C38.7099 26.1499 38.6573 26.129 38.6023 26.1252C38.5701 26.1172 38.538 26.1172 38.5032 26.1172Z" fill="white"/>
<path d="M36.2192 25.3705L36.2145 25.362C36.1082 25.1683 36.0501 24.8259 36.0956 24.5489L36.0956 24.5489L36.0965 24.5431C36.1236 24.3653 36.2017 24.1382 36.3261 23.9261C36.3952 23.8085 36.472 23.7064 36.5522 23.6236C36.6532 23.7603 36.7286 23.9509 36.7761 24.1619C36.8469 24.4827 36.7564 24.8796 36.6075 25.3251C36.5804 25.398 36.5171 25.5127 36.4383 25.6422C36.388 25.5859 36.3402 25.5294 36.3 25.4791C36.251 25.4176 36.2275 25.3827 36.2209 25.373C36.22 25.3717 36.2194 25.3709 36.2192 25.3705Z" fill="#FFB300" stroke="black"/>
<path d="M36.5686 23.1465C36.8951 23.3365 37.0584 23.7406 37.136 24.0805C37.2323 24.5114 37.1039 25.0011 36.954 25.4453C36.8657 25.6942 36.4991 26.2188 36.5017 26.2188C36.4991 26.2188 36.0307 25.8013 35.8942 25.539C35.739 25.2527 35.6802 24.8272 35.7337 24.4873C35.8033 24.0404 36.1057 23.4195 36.5686 23.1465ZM36.5686 22.8789C36.5205 22.8789 36.475 22.8923 36.4322 22.9164C35.8809 23.2429 35.549 23.9413 35.4714 24.4498C35.4045 24.8539 35.4794 25.3356 35.6614 25.6675C35.7096 25.7611 36.2716 26.4864 36.5044 26.4864C36.6008 26.4864 36.6891 26.4355 36.7346 26.3552L36.756 26.3231C36.9139 26.0849 37.1333 25.7451 37.2082 25.5337C37.3661 25.0653 37.508 24.5247 37.3982 24.0216C37.3153 23.6496 37.1253 23.1572 36.7051 22.9137C36.6623 22.8896 36.6141 22.8789 36.5686 22.8789Z" fill="white"/>
<path d="M38.041 25.7248C37.9537 25.7638 37.8198 25.805 37.6778 25.843C37.6832 25.8226 37.6887 25.8029 37.6941 25.7842C37.7152 25.7121 37.7298 25.6765 37.733 25.6685C37.7334 25.6677 37.7336 25.6671 37.7337 25.6669L37.7365 25.6616C37.9861 25.1884 38.2804 24.8866 38.5971 24.7204L38.5971 24.7204L38.6009 24.7183C38.7289 24.6497 38.9882 24.5303 39.2632 24.4776C39.2497 24.5104 39.2341 24.5449 39.2164 24.581C39.1207 24.7753 38.9823 24.9705 38.8412 25.1289C38.6239 25.3681 38.3024 25.6055 38.041 25.7248Z" fill="#FFB300" stroke="black"/>
<path d="M39.5215 24.086C39.5831 24.086 39.6446 24.0913 39.7035 24.0994C39.7436 24.5035 39.4198 25.036 39.1174 25.3786C38.8873 25.6355 38.526 25.9138 38.1968 26.061C37.8971 26.1948 37.228 26.3286 37.228 26.3286C37.2254 26.3286 37.2842 25.7345 37.4154 25.4936C37.6375 25.0708 37.9667 24.6399 38.4323 24.3964C38.7428 24.2305 39.1549 24.086 39.5215 24.086ZM39.5215 23.8184C39.005 23.8184 38.4965 24.0592 38.3039 24.1609C37.8516 24.3991 37.4716 24.8059 37.1772 25.3705C37.0969 25.515 36.8935 26.2885 36.9979 26.4651C37.0461 26.548 37.1344 26.5962 37.228 26.5962C37.2468 26.5962 37.2682 26.5935 37.2869 26.5882C37.5652 26.5293 38.047 26.4196 38.3065 26.3045C38.6518 26.1466 39.0478 25.8549 39.3155 25.5552C39.666 25.1591 40.0193 24.5623 39.9711 24.0699C39.9577 23.9495 39.8667 23.8505 39.7463 23.8317C39.6714 23.8237 39.5964 23.8184 39.5215 23.8184Z" fill="white"/>
<path d="M25.8668 31.5996L28.3619 32.4354M28.3619 32.4354L31.0566 33.2712M28.3619 32.4354V42.9996L31.1167 42.9995M31.0566 33.2712V33.2712C33.6723 34.0458 35.4668 36.4488 35.4668 39.1767V42.9649C35.4668 42.9841 35.4513 42.9996 35.4321 42.9996L31.1167 42.9995M31.0566 33.2712C31.0566 34.7262 31.1167 42.9252 31.1167 42.9995" stroke="black"/>
<path d="M20.0469 31.5996L17.8334 32.3426L15.3516 33.1784L15.0792 33.2633C12.5725 34.0449 10.8652 36.3656 10.8652 38.9913V42.4996C10.8652 42.7758 11.0891 42.9996 11.3652 42.9996H14.4925H31.8652" stroke="black"/>
<path d="M16.8652 20.9784V22.5988C16.8652 25.9125 19.5515 28.5988 22.8652 28.5988V28.5988C26.1789 28.5988 28.8652 25.9125 28.8652 22.5988V20.7988" stroke="black"/>
<path d="M19.8652 28V31C19.8652 32.6569 21.2084 34 22.8652 34V34V34C24.5221 34 25.8652 32.6569 25.8652 31V28" stroke="black"/>
<path d="M29.4656 18.194V15C29.4656 12.2386 27.2271 10 24.4656 10H21.2656C18.5042 10 16.2656 12.2386 16.2656 15V18.4" stroke="black"/>
<path d="M26.4656 17.1996V16.5996C26.4656 14.9428 25.1225 13.5996 23.4656 13.5996H22.2656C20.6088 13.5996 19.2656 14.9428 19.2656 16.5996V16.8923" stroke="black"/>
<mask id="path-38-inside-5_2611_16645" fill="white">
<path d="M30.7881 21.2779C31.5678 20.4982 31.5752 19.2197 30.6869 18.5664C29.832 17.9376 28.9024 17.4128 27.9174 17.0048C26.3159 16.3414 24.5995 16 22.866 16C21.1326 16 19.4161 16.3414 17.8146 17.0048C16.8296 17.4128 15.9 17.9376 15.0451 18.5664C14.1569 19.2197 14.1642 20.4982 14.9439 21.2779C15.7236 22.0575 16.9796 22.035 17.9087 21.4414C18.3627 21.1513 18.8424 20.9009 19.3426 20.6937C20.4597 20.231 21.6569 19.9929 22.866 19.9929C24.0751 19.9929 25.2724 20.231 26.3894 20.6937C26.8896 20.9009 27.3693 21.1513 27.8233 21.4414C28.7525 22.035 30.0085 22.0575 30.7881 21.2779Z"/>
</mask>
<path d="M30.7881 21.2779C31.5678 20.4982 31.5752 19.2197 30.6869 18.5664C29.832 17.9376 28.9024 17.4128 27.9174 17.0048C26.3159 16.3414 24.5995 16 22.866 16C21.1326 16 19.4161 16.3414 17.8146 17.0048C16.8296 17.4128 15.9 17.9376 15.0451 18.5664C14.1569 19.2197 14.1642 20.4982 14.9439 21.2779C15.7236 22.0575 16.9796 22.035 17.9087 21.4414C18.3627 21.1513 18.8424 20.9009 19.3426 20.6937C20.4597 20.231 21.6569 19.9929 22.866 19.9929C24.0751 19.9929 25.2724 20.231 26.3894 20.6937C26.8896 20.9009 27.3693 21.1513 27.8233 21.4414C28.7525 22.035 30.0085 22.0575 30.7881 21.2779Z" stroke="black" stroke-width="2" mask="url(#path-38-inside-5_2611_16645)"/>
</svg>
